<svg id="Layer_1" data-name="Layer 1" xmlns="http://www.w3.org/2000/svg" viewBox="0 0 1435.28 402.51"><defs><style>.cls-1{fill:#003063;}.cls-2{fill:#fc0;}</style></defs><path class="cls-1" d="M466.16,145h22.16a11,11,0,0,1,11,11h0c8.45-8.22,19.64-13.25,34.26-13.25,21.47,0,37.91,16.22,37.91,37v79.48H537.2V193.38c0-16.68-8.45-19.42-15.76-19.42-7.54,0-15.08,3-22.16,11v74.23H466.16Z"/><path class="cls-1" d="M646.83,142.67c34,0,56.41,21.93,59.16,59.61v.11a12.6,12.6,0,0,1-12.6,13.37H625.13A26.76,26.76,0,0,0,650,232.89a30.43,30.43,0,0,0,17.48-5.62,20.06,20.06,0,0,1,20.52-1.7l13.39,6.63c-10.74,17.36-27.18,29.24-51.85,29.24-39.28,0-61-26.73-61-59.61C588.59,169.39,615.31,142.67,646.83,142.67Zm23.75,48.88c-1.82-10.28-8.45-20.33-22.15-20.33s-21.47,9.59-24,20.33Z"/><path class="cls-1" d="M723.35,145h20.1a13,13,0,0,1,13,13h0c8-8.9,18-14.61,30.83-14.61a44.92,44.92,0,0,1,12.1,1.6V164.9a11,11,0,0,1-11.08,10.89h-.11c-13.7,0-25.35,5.71-31.74,15.07v68.29H723.35Z"/><path class="cls-1" d="M860.17,142.67c13.47,0,22.61,4.8,29.69,11.88h0a9.59,9.59,0,0,1,9.59-9.59H923v95.69c0,35.4-19.64,59.61-59.84,59.61a117.34,117.34,0,0,1-28.34-3.6,15.22,15.22,0,0,1-11.4-14.77V262.35c8.91,3.43,21.47,8,35.86,8,20.79,0,30.61-9.82,30.61-25.35v-4.34c-7.08,6.63-16.22,11.42-29.69,11.65-31.75,0-52.76-24.89-52.76-55C807.41,167.34,828.42,142.67,860.17,142.67Zm-18.5,54.59c0,11.65,6.62,24.21,23.29,24.21,9.37,0,19.87-6.4,24.9-11.42v-23.3c-5.26-7.08-15.53-13.25-24.9-13.25C848.29,173.5,841.67,185.38,841.67,197.26Z"/><path class="cls-1" d="M945.82,145h17.85a15.27,15.27,0,0,1,15.27,15.27v98.92H945.82Z"/><path class="cls-1" d="M1158.69,142.67a59.46,59.46,0,0,1,59.16,59.16c0,32.88-26.72,59.61-59.16,59.61a59.66,59.66,0,0,1-59.61-59.61C1099.08,169.39,1125.8,142.67,1158.69,142.67Zm.23,89.08c17.59,0,24.67-16.22,24.67-29.92s-7.08-29.47-24.67-29.47c-17.81,0-25.58,15.76-25.58,29.47S1141.11,231.75,1158.92,231.75Z"/><path class="cls-1" d="M1254,145a15.26,15.26,0,0,1,15.27,15.27v50.5c0,16.68,8.68,19.42,15.31,19.42,8,0,15.53-1.37,22.61-8.68V145h33.11V259.15H1320a12.78,12.78,0,0,1-12.79-12.79h0a45,45,0,0,1-34.26,15.08c-21.47,0-37.91-16.22-37.91-37V145Z"/><path class="cls-1" d="M1089.94,144.06v19.78a22.1,22.1,0,0,1-5.75,14.87l-46.55,51.23h52.3V243a15.27,15.27,0,0,1-15.27,15.27H994.93V238.48a22.1,22.1,0,0,1,5.75-14.87l46.55-51.23h-52.3v-13a15.27,15.27,0,0,1,15.27-15.27Z"/><path class="cls-1" d="M391.7,140.39c34,0,56.41,21.92,59.15,59.61v.1a12.6,12.6,0,0,1-12.6,13.37H370a26.74,26.74,0,0,0,24.9,17.13A30.45,30.45,0,0,0,412.38,225a20.06,20.06,0,0,1,20.51-1.71l13.4,6.64c-10.74,17.36-27.18,29.23-51.85,29.23-39.28,0-61-26.72-61-59.61C333.46,167.11,360.18,140.39,391.7,140.39Zm23.75,48.87C413.63,179,407,168.94,393.3,168.94s-21.47,9.59-24,20.32Z"/><path class="cls-2" d="M213,105V216L108,105H213m10-10H107.37a9.73,9.73,0,0,0-7.07,16.42L223,241.06V95Z"/><path class="cls-2" d="M166.57,186.56l105,110.94h-105V186.56m-10-25.11V307.5H272.22a9.73,9.73,0,0,0,7.07-16.42L156.57,161.45Z"/><path class="cls-2" d="M223,95l55.26,55.26a25.13,25.13,0,0,1,0,35.53L156.59,307.5l-54.22-54.22a25.11,25.11,0,0,1-.15-35.37Z"/></svg>